<?xml version="1.0" encoding="UTF-8"?>
<!DOCTYPE svg PUBLIC "-//W3C//DTD SVG 1.1//EN" "http://www.w3.org/Graphics/SVG/1.1/DTD/svg11.dtd">
<svg version="1.1" xmlns="http://www.w3.org/2000/svg" xmlns:xlink="http://www.w3.org/1999/xlink"

height="600" width="1200">

<defs>
<g id="Pentagram">
<g id="Arm">
<path id="Triangle" d="M 0,0 L 0,1 L 0.5,1 z" transform="translate(0,-1) rotate(18)"/>
<use xlink:href="#Triangle" transform="scale(-1,1)"/>
</g>
<use xlink:href="#Arm" transform="rotate(72)"/>
<use xlink:href="#Arm" transform="rotate(-72)"/>
<use xlink:href="#Arm" transform="rotate(144)"/>
<use xlink:href="#Arm" transform="rotate(-144)"/>
</g>
</defs>

<rect fill="#002776" x="0" y="0" width="1200" height="600"/>
<path fill="#c60c30" d="M 0 0 L 0 600 L 138.0625 425.6875 L 335.53125 305.09375 L 528.25 232.21875 L 664.75 140.1875 L 741.1875 59.375 L 775.375 0 L 0 0 z"/>
<path fill="#ffffff" d="M 775 0 C 771.401 0 762.99352 10.673695 761 19.75 C 757.75394 34.529252 750.69432 37.278454 753.625 22.625 C 755.3665 13.917499 754.9832 11.954343 752.0625 14.875 C 749.90426 17.033287 747.40304 26.334064 746.25 35.5 C 744.85774 46.567434 745.167 47.018108 743.125 50.6875 C 740.97586 54.549432 739.8698 44.537316 741.0625 35.625 C 742.60136 24.126066 741.94144 21.956178 738.5 25.1875 C 736.11544 27.426446 733.19354 38.231912 732 49.1875 C 730.80646 60.143026 728.0461 69.697872 725.8125 70.4375 C 723.45298 71.218862 722.27682 69.20276 723 65.5625 C 723.68456 62.1165 725.05412 53.120656 726.0625 45.625 C 727.7121 33.362224 727.35968 32.577762 722.5625 37.375 C 719.63018 40.3073 715.29216 54.150274 712.9375 68.125 C 710.58288 82.09973 706.97254 94.071608 704.9375 94.75 C 702.40654 95.593636 702.15738 91.23895 704.125 81.0625 C 707.89732 61.552454 708.0382 50.625 704.4375 50.625 C 699.36004 50.625 693.33248 68.004938 691.125 89.125 C 689.9509 100.35809 686.7439 111.41027 684 113.6875 C 679.77796 117.19144 679.29968 115.9673 680.875 105.875 C 681.89884 99.315978 683.66052 86.15964 684.75 76.625 L 686.6875 59.25 L 679.9375 67.125 C 673.06568 75.10714 665.6875 102.17927 665.6875 119.4375 C 665.68752 128.72842 660.33558 137.3125 654.5 137.3125 C 652.9073 137.31249 653.02144 134.58712 654.75 131.25 C 656.47856 127.91287 658.67566 113.76993 659.625 99.875 C 661.2632 75.896068 660.99878 74.92835 655.1875 80.1875 C 647.55008 87.099226 641.4375 110.73968 641.4375 133.25 C 641.43746 147.96802 640.15594 151.19485 632.25 156.375 C 623.3879 162.18171 623.14302 162.19481 625.5625 155.9375 C 628.711 147.79465 630.21542 137.96527 632.625 109.875 C 634.50436 87.965256 634.41108 87.72773 627.6875 93.8125 C 618.90096 101.76418 610.25 131.77886 610.25 154.1875 C 610.25 167.9872 608.77418 172.48981 603.5 175.3125 C 593.4118 180.71155 592.86794 179.88586 597.9375 167.625 C 600.50006 161.42746 603.1269 143.60386 603.8125 128 C 605.01402 100.65298 604.82662 99.819236 598.6875 105.375 C 588.01932 115.02958 581.94172 134.14434 579.9375 164.3125 C 578.36032 188.05223 576.87286 193.71167 571.3125 196.6875 C 562.22652 201.55018 560.0444 198.39226 564.4375 186.8125 C 566.4502 181.50726 569.0481 162.39792 570.25 144.375 L 572.4375 111.625 L 565.0625 118.3125 C 560.9937 121.99473 555.60492 129.87723 553.125 135.8125 C 547.06264 150.32183 539.74108 194.92438 542 203.5625 C 543.337 208.67532 540.91994 212.31686 532.8125 217.25 C 521.52732 224.11674 516.00786 220.96498 523.5 211.9375 C 527.56648 207.03768 535.42762 138.49657 533.1875 127.5 C 532.19926 122.64897 530.44988 123.31587 523 131.25 C 512.10924 142.84863 503.55588 171.90087 500.5625 207.3125 C 498.5834 230.72512 497.41834 234.12 490 237.5 C 476.72614 243.54798 475.48686 242.14862 482.0625 228.3125 C 488.67902 214.39046 495.39098 133.8125 489.9375 133.8125 C 484.78802 133.8125 473.4239 151.50987 466.875 169.75 C 463.36302 179.53149 459.70892 201.74984 458.6875 219.0625 C 456.84216 250.34048 456.7185 250.525 446.1875 254.5 C 440.35848 256.70022 435.06496 258.0025 434.4375 257.375 C 433.80996 256.7475 435.48762 250.92788 438.125 244.4375 C 440.76238 237.94718 443.91982 215.77944 445.1875 195.1875 C 446.45514 174.59552 448.38994 152.79259 449.4375 146.6875 L 451.3125 135.5625 L 439.125 148.25 C 423.41436 164.60974 415.90596 189.06289 413.5625 231.4375 C 411.8389 262.60462 411.12438 265.12814 403.3125 268.6875 C 387.79376 275.7583 384.97754 273.7213 391.75 260.4375 C 396.02908 252.04432 398.5733 236.08698 400.1875 207.625 C 401.46126 185.16693 403.3374 162.09579 404.3125 156.375 L 406.0625 145.9375 L 393.9375 158.6875 C 377.70292 175.72035 370.41492 200.51376 368.4375 245.1875 L 366.8125 282 L 354.9375 287.625 C 337.80394 295.7954 336.40734 294.84212 343.8125 279.875 C 348.75934 269.87656 351.31718 253.4385 353.875 215.25 C 355.76158 187.08248 356.57616 163.26367 355.625 162.3125 C 354.67388 161.36138 349.19304 165.65121 343.4375 171.8125 C 328.38746 187.9237 318.74044 221.70184 316.4375 266.625 L 314.5 304.0625 L 301.3125 310.8125 C 283.7934 319.75008 283.12546 319.49134 290.3125 306.3125 C 295.37806 297.02388 296.61072 284.39082 297.5625 234.375 L 298.75 173.6875 L 288.0625 183.875 C 267.78344 203.21494 253.95838 261.18062 258.375 308.3125 L 260.6875 333.25 L 246.3125 341.375 C 229.2753 350.9505 225.9338 349.50212 234.625 336.25 C 240.01438 328.03244 241.315 316.38046 243.0625 258.8125 C 244.19398 221.53848 244.53724 190.36459 243.875 189.5625 C 243.21276 188.76043 238.58134 191.88407 233.5625 196.5 C 212.356 216.00408 200.44246 262.51174 200.5625 325.25 L 200.625 369.3125 L 189.1875 376.375 C 182.8942 380.26444 176.89691 383.4375 175.875 383.4375 C 174.8531 383.43752 177.17206 375.26138 181 365.25 C 187.49471 348.2641 187.70459 344.06032 184.125 302 C 182.01517 277.2099 180.30692 245.34516 180.3125 231.1875 L 180.3125 205.4375 L 171.4375 213.75 C 156.94404 227.36588 149.58877 242.11938 144 268.6875 C 137.8061 298.13228 137.07384 361.5534 142.625 387.4375 L 146.5 405.5625 L 131.3125 418.6875 C 114.7573 432.9996 108.81153 435.3519 112.875 425.9375 C 123.2139 401.98372 121.69761 348.44932 107.8125 243.0625 L 105.5625 225.6875 L 92.6875 243.0625 C 77.092074 264.08502 73.733374 275.31584 69.25 321.625 C 65.432048 361.06092 67.505498 403.45802 75.0625 440.5625 L 80 464.6875 L 40 504.6875 L 0 544.625 L 0 600 L 104.25 473.5625 C 105.51625 473.5625 117.31334 480.82892 130.4375 489.6875 C 195.79338 533.80172 279.43826 556.09214 316.3125 539.25 C 325.52982 535.03994 324.20612 534.13868 264.25 501.875 C 168.71995 450.46834 170.84467 451.3797 150.3125 451.1875 C 140.10568 451.09188 131.75184 450.0026 131.75 448.75 C 131.74811 447.49738 139.54576 439.9679 149.0625 432 L 166.375 417.5 L 185.1875 433.5625 C 210.5799 455.2559 252.04948 478.44324 285.4375 489.5625 C 307.46124 496.89708 317.067 498.30832 333.5625 496.8125 C 354.22364 494.93908 362.87126 491.40024 354.1875 488.3125 C 351.63558 487.4052 325.11566 470.27736 295.25 450.25 C 233.85674 409.08058 224.3479 404.1875 204.6875 404.1875 C 196.99861 404.1875 190.70932 403.05506 190.75 401.625 C 190.86186 397.69654 217.05816 379.9375 222.75 379.9375 C 225.48686 379.93752 230.74238 383.27256 234.375 387.3125 C 244.48382 398.55482 280.17366 422.97558 303.375 434.5625 C 337.87018 451.7897 360.5087 457.59942 379.375 454.0625 L 395.75 451 L 358.4375 425 C 337.91 410.69816 311.44486 392.18988 299.625 383.875 C 284.28492 373.08392 273.53532 368.2861 262.125 367 C 253.33302 366.009 246.18562 364.18218 246.1875 363 C 246.18948 361.81782 253.56916 356.73784 262.625 351.6875 L 279.125 342.5 L 298.1875 359.8125 C 337.28268 395.2902 393.67014 421.61504 418.125 415.8125 L 430.5 412.875 L 407.375 395.9375 C 394.67102 386.61208 373.10528 369.75346 359.4375 358.5 C 344.61196 346.29322 328.60332 336.411 319.8125 334 C 311.70812 331.77724 305.125 329.03322 305.125 327.875 C 305.125 326.7167 310.6968 323.08648 317.5625 319.8125 L 330.0625 313.875 L 354.875 337.375 C 387.38682 368.21746 423.6415 387.65912 445.875 386.1875 L 461.875 385.125 L 439.8125 367 C 427.69424 357.02384 409.39112 341.06954 399.125 331.5 C 388.81762 321.89206 374.46506 312.28042 367.0625 310.0625 C 359.68974 307.85362 353.66812 305.12836 353.6875 304 C 353.70688 302.8717 359.70718 299.39994 367.0625 296.3125 L 380.4375 290.6875 L 400.875 312.3125 C 427.4599 340.44272 457.47248 359.62818 478.1875 361.75 L 494.0625 363.375 L 457.875 326.6875 C 434.99972 303.52996 418.07836 289.2863 411.9375 287.9375 C 398.89944 285.07388 399.65444 281.35454 414.25 276.875 C 426.10562 273.23642 426.72652 273.52472 448.4375 294.8125 C 472.79974 318.69982 507.62838 338.3125 525.6875 338.3125 C 537.14578 338.31248 537.16524 338.33068 505.875 308 C 488.66168 291.3145 468.81644 275.02678 461.8125 271.8125 L 449.125 266 L 458.8125 262.3125 C 473.01638 256.9122 474.17364 257.24998 491.8125 272.9375 C 513.81472 292.50568 553.77556 311.36158 570.1875 309.9375 L 582.8125 308.875 L 550.5625 283.1875 C 532.83364 269.05196 513.25998 255.91646 507.0625 254 C 500.86504 252.08356 495.8125 249.41812 495.8125 248.0625 C 495.81252 243.37432 517.2929 236.50606 521.625 239.8125 C 558.64426 268.06678 596.37758 285.37446 612.3125 281.375 C 620.31106 279.36752 618.38268 277.21284 588.25 255 C 567.44978 239.66678 552.17332 230.875 546.4375 230.875 C 534.93664 230.875 534.8569 226.191 546.25 221 C 558.4425 215.44472 560.58224 215.82304 573.1875 225.4375 C 592.94234 240.50528 621.12326 251.59656 639.6875 251.625 L 657 251.625 L 625.8125 230.875 C 608.65034 219.44156 591.17796 210.06652 587 210.0625 C 575.47718 210.05142 574.20302 204.05282 584.5625 198.625 C 593.09948 194.152 595.21308 194.61521 612.5625 205.0625 C 634.36392 218.19058 661.77272 225.71962 675.3125 222.25 C 684.11418 219.9946 682.69362 218.71174 655.3125 204.6875 C 639.1038 196.38563 622.36552 189.53324 618.1875 189.4375 C 606.73308 189.17494 605.69638 183.81577 615.8125 177.1875 C 624.5118 171.48744 625.45422 171.5903 641.25 180.1875 C 661.47708 191.19647 689.29106 197.52399 700 193.5625 C 706.94132 190.99476 704.3495 189.01571 679 177.75 C 663.10484 170.686 647.0108 164.92202 643.25 164.9375 C 636.64762 164.96473 636.6412 164.73381 643.875 157.5 L 651.375 150 L 674.1875 157.5 C 697.4576 165.13901 719.44152 167.04403 727.1875 162.125 C 731.84808 159.16529 689.88696 144.1875 676.9375 144.1875 C 667.4273 144.1875 664.39014 139.15318 670.75 133.875 C 674.53176 130.73637 681.57706 130.65667 699.5 133.4375 C 716.78226 136.11896 726.93448 136.00645 736.9375 133.125 L 750.625 129.1875 L 729.8125 124.6875 C 718.37106 122.22176 704.40268 120.14569 698.75 120.0625 C 689.13554 119.92101 688.8148 119.56011 694.25 114.125 C 698.51024 109.86474 705.47086 108.46024 720.1875 108.875 C 731.22574 109.18606 744.90426 107.34336 750.625 104.8125 L 761.0625 100.25 L 741.8125 97.75 C 731.2352 96.402198 719.5369 96.446878 715.8125 97.8125 C 709.35292 100.18091 709.3179 99.992154 715 93.5 C 718.37114 89.648226 726.18012 86.334274 733 85.875 C 746.53548 84.963424 768.05386 76.849934 771.4375 71.375 C 774.05552 67.139078 747.34996 70.46312 737.3125 75.625 C 732.20796 78.250058 731.18336 77.659704 732.125 72.875 C 732.82042 69.34156 739.00922 65.242692 747.25 62.8125 C 762.31454 58.369972 781.38 47.19249 778.625 44.4375 C 777.69114 43.503622 770.5314 44.970132 763 48.3125 C 753.15232 52.682814 749.48547 53.956082 747.625 54.375 C 745.5694 54.837864 748.80504 49.75748 751.8125 46.75 C 754.41984 44.142672 757.1928 42.393382 760.6875 40.1875 C 762.7101 38.910822 768.8145 36.012308 773.4375 30.9375 C 781.83856 21.715346 776.82954 22.72544 765.375 32.5625 C 756.9082 39.833652 757.77118 35.730922 767.9375 20.75 C 772.70486 13.725087 776.625 5.6398116 776.625 2.75 C 776.625 1.0889434 776.14138 0.20963736 775.375 0 L 775 0 z"/>

<g id="Southern_Cross">
<g id="Gamma_Crucis">
<use xlink:href="#Pentagram" fill="#ffffff" transform="translate(950,150) scale(47)"/>
<use xlink:href="#Pentagram" fill="#c60c30" transform="translate(950,150) scale(30.5)"/>
</g>
<g transform="rotate(82,950,250)">
<g id="Delta_Crucis">
<use xlink:href="#Pentagram" fill="#ffffff" transform="translate(950,375) rotate(-82) scale(47)"/>
<use xlink:href="#Pentagram" fill="#c60c30" transform="translate(950,375) rotate(-82) scale(30.5)"/>
</g>
<g id="Beta_Crucis">
<use xlink:href="#Pentagram" fill="#ffffff" transform="translate(950,150) rotate(-82) scale(43.25)"/>
<use xlink:href="#Pentagram" fill="#c60c30" transform="translate(950,150) rotate(-82) scale(26.75)"/>
</g>
</g>
<g id="Alpha_Crucis">
<use xlink:href="#Pentagram" fill="#ffffff" transform="translate(950,460) scale(52)"/>
<use xlink:href="#Pentagram" fill="#c60c30" transform="translate(950,460) scale(35.5)"/>
</g>
</g>
</svg>